<svg xmlns="http://www.w3.org/2000/svg" width="55.616" height="31.608" viewBox="0 0 55.616 31.608">
  <g id="ciclismo" transform="translate(-268.052 -1015.699)">
    <path id="Pfad_71" data-name="Pfad 71" d="M2343.427,1020a4.3,4.3,0,1,0,4.3-4.3A4.3,4.3,0,0,0,2343.427,1020Zm7.567,0a3.267,3.267,0,1,1-3.267-3.268A3.271,3.271,0,0,1,2350.994,1020Z" transform="translate(-2042.053)" fill="#fff"/>
    <path id="Pfad_72" data-name="Pfad 72" d="M284.146,1408.023a6.734,6.734,0,0,0-2.485,2.565,8.544,8.544,0,1,0,2.987,9.754l10.06.995q.212.021.423.021a4.216,4.216,0,0,0,3.684-2.171l.551-.988a2.067,2.067,0,0,0,.1-.213h7.13a8.546,8.546,0,1,0,8.53-9.063,8.471,8.471,0,0,0-4.578,1.338l-3.789-2.394a2.243,2.243,0,0,1-.473-.4l-4.733-5.261h0l-.185-.207a4.531,4.531,0,0,0-5.573-.788Zm.521.891,3-1.754,4.079,5.724-.439.257a1.367,1.367,0,0,0-.625,1.6l-5.913.211a8.56,8.56,0,0,0-2.3-3.681A5.7,5.7,0,0,1,284.667,1408.913Zm-8.068,16.071a7.515,7.515,0,1,1,7.515-7.515A7.524,7.524,0,0,1,276.6,1424.984Zm21.865-7.288-.551.988a3.187,3.187,0,0,1-3.1,1.625l-9.871-.976a8.464,8.464,0,0,0,.073-3.363l6.935-.247,5.635.359a1.1,1.1,0,0,1,.667.284,1.1,1.1,0,0,1,.215,1.33Zm-.817-2.644-5.659-.361a.381.381,0,0,1-.206-.08.345.345,0,0,1-.133-.3.355.355,0,0,1,.176-.28l8.54-5c.09-.053.175-.11.259-.167l2.595,2.434a3.255,3.255,0,0,0,.947.62l3.441,1.477a8.471,8.471,0,0,0-1.015,3.559h-6.978c0-.033,0-.066-.007-.1a2.115,2.115,0,0,0-1.96-1.8Zm14.6-.751.931,1.318a2.676,2.676,0,0,0-.694,1.334h-4.865a7.435,7.435,0,0,1,.939-3.149l1.77.76a1.875,1.875,0,0,0,.741.153A1.9,1.9,0,0,0,312.251,1414.3Zm1.547,2.19.9,1.276a.516.516,0,0,0,.843-.6l-.9-1.274a1.628,1.628,0,0,1,.479-.079,1.651,1.651,0,1,1-1.651,1.651A1.636,1.636,0,0,1,313.8,1416.491Zm1.323-6.537a7.515,7.515,0,1,1-7.5,8.031h4.864a2.688,2.688,0,1,0,1.536-2.962l-1.153-1.633a1.871,1.871,0,0,0-.786-2.156l-.564-.356A7.444,7.444,0,0,1,315.121,1409.954Zm-8.919-1.216,5.332,3.369a.855.855,0,0,1-.794,1.509l-6.167-2.647a2.229,2.229,0,0,1-.648-.424l-1.672-1.569,2.108-2.1,1.151,1.28A3.269,3.269,0,0,0,306.2,1408.738Zm-8.131-7.118a3.52,3.52,0,0,1,2.532,1.077l.175.2h0l2.89,3.212-2.17,2.163-2.061-1.934a.516.516,0,0,0-.706.752l1.117,1.048-.006,0-7.207,4.22-4.079-5.724,7.752-4.537A3.488,3.488,0,0,1,298.072,1401.62Z" transform="translate(0 -378.709)" fill="#fff"/>
    <path id="Pfad_73" data-name="Pfad 73" d="M677.036,2326.587a2.013,2.013,0,1,0,2.013,2.013A2.015,2.015,0,0,0,677.036,2326.587Zm0,2.994a.981.981,0,1,1,.981-.981A.982.982,0,0,1,677.036,2329.581Z" transform="translate(-400.437 -1289.84)" fill="#fff"/>
  </g>
</svg>
