<svg xmlns="http://www.w3.org/2000/svg" width="31.992" height="36.481" viewBox="0 0 31.992 36.481">
  <path id="wassertropfen" d="M30.863,10.847,24.875.783a1.581,1.581,0,0,0-2.731,0l-6.19,10.47L12.711,5.63a1.77,1.77,0,0,0-3.066,0h0L1.473,19.807a11.174,11.174,0,0,0,15.268,15.2A11.135,11.135,0,0,0,22.2,23.393a8.446,8.446,0,0,0,8.664-12.546ZM19.923,27.683a9.046,9.046,0,1,1-16.6-6.809L11.179,7.245,19.7,22.285A8.88,8.88,0,0,1,19.923,27.683Zm1.569-6.656c-.365-.858-.252-.6-4.315-7.649L23.511,2.666l5.509,9.257A6.326,6.326,0,0,1,21.493,21.027Zm0,0" transform="translate(0 0)" fill="#fff"/>
</svg>
