<svg xmlns="http://www.w3.org/2000/svg" width="40.528" height="41.605" viewBox="0 0 40.528 41.605">
  <path id="hands" d="M22.221,40.735a.693.693,0,1,1-1.341.353L19.988,37.7a12.527,12.527,0,0,1-4.2-3.408c-2.579-3.252-5.243-3.98-8.137-5.349a2.493,2.493,0,0,1-1.436-2.288c.015-2.53,3.362-3.317,5.734-2.408.04.015-.209-.1,3.71,1.768a1.271,1.271,0,0,0,1.8-1.351L14.276,4.96a2.718,2.718,0,0,1,2.249-3.106A2.758,2.758,0,0,1,19.594,3.9l3.422,13.359a.693.693,0,1,1-1.343.344L18.251,4.249a1.361,1.361,0,0,0-1.505-1.026,1.329,1.329,0,0,0-1.1,1.518l3.185,19.7a2.66,2.66,0,0,1-3.77,2.824l-3.634-1.734a4.087,4.087,0,0,0-3.172.114,1.128,1.128,0,0,0-.016,2.042c3.376,1.526,6.01,2.434,8.634,5.742a11.127,11.127,0,0,0,4,3.156.694.694,0,0,1,.378.452ZM23.567,13.1a.692.692,0,0,0,.721-.665l.4-9.864a1.233,1.233,0,0,1,2.464-.01l.543,11.2a.693.693,0,1,0,1.385-.067l-.543-11.2a2.62,2.62,0,0,0-5.235.022l-.4,9.864a.693.693,0,0,0,.665.721Zm6.976.887A.693.693,0,0,0,31.4,13.5l2.169-7.77a1.019,1.019,0,0,1,1.245-.707A1.039,1.039,0,0,1,35.542,6.2l-1.176,7.737a.693.693,0,1,0,1.371.208L36.913,6.41A2.4,2.4,0,0,0,32.23,5.362l-2.169,7.77A.693.693,0,0,0,30.542,13.986Zm7.847.725a.694.694,0,0,0,.966-.17l1.575-2.248a.886.886,0,0,1,1.275-.188.925.925,0,0,1,.243,1.1l-1.916,4.278a.693.693,0,1,0,1.266.567l1.916-4.278A2.274,2.274,0,0,0,39.795,11.5L38.22,13.745a.693.693,0,0,0,.17.966Zm6.707,25.6L39.36,36.971a.693.693,0,1,0-.7,1.2L44.4,41.511a.693.693,0,0,0,.7-1.2Zm1.482-7.738c-.936-1.113-1.475-1.592-1.618-2.6-.265-1.855-1.079-2.734-2.855-5.292l-2.988-7.836a1.683,1.683,0,0,0-3.24.866l.691,3.927-3.757-5.1a1.764,1.764,0,0,0-2.973,1.891l2.682,4.76-5.191-4.711a1.9,1.9,0,0,0-2.674,2.7l4.625,5.012-5.327-3.155a1.989,1.989,0,0,0-2.61.522,1.963,1.963,0,0,0,.438,2.734L31.919,33.6a.538.538,0,0,1-.135.943s-2.429.861-2.446.868c-1.635.729-2.8,2.762-1.552,4.025a1.819,1.819,0,0,0,1.921.439,20.264,20.264,0,0,1,3.363-1.134l-.182,2.108a.693.693,0,0,0,1.382.119c.275-3.189.264-3.007.255-3.1a.7.7,0,0,0-.749-.623,15.448,15.448,0,0,0-4.539,1.324.448.448,0,0,1-.566-.578,2.3,2.3,0,0,1,1.208-1.3l2.367-.838a1.926,1.926,0,0,0,.484-3.375L22.594,25.161a.573.573,0,0,1-.127-.8.592.592,0,0,1,.779-.141l9.4,5.568a.694.694,0,0,0,.863-1.067l-7.837-8.492A.513.513,0,0,1,26.4,19.5L34.762,27.1a.694.694,0,0,0,1.07-.854l-4.787-8.5a.378.378,0,0,1,.142-.513.4.4,0,0,1,.506.125L37.2,24.843a.694.694,0,0,0,1.241-.531c-1.282-7.289-1.26-6.919-1.15-7.069a.3.3,0,0,1,.525.1c3.225,8.457,3.025,7.961,3.1,8.063,1.847,2.661,2.458,3.285,2.67,4.767.205,1.436.938,2.117,1.93,3.3a.693.693,0,1,0,1.061-.892Z" transform="translate(-6.212 0)" fill="#fff"/>
</svg>
