<svg xmlns="http://www.w3.org/2000/svg" width="39.032" height="43.621" viewBox="0 0 39.032 43.621">
  <g id="knie" transform="translate(-35.035 -9.034)">
    <path id="Pfad_63" data-name="Pfad 63" d="M172.7,10s16.448,6.189,19.416,7.207,8.072,4.746,5.681,12.294L190.76,51.714" transform="translate(-125.111)" fill="none" stroke="#fff" stroke-linecap="round" stroke-linejoin="round" stroke-miterlimit="22.926" stroke-width="1.5" fill-rule="evenodd"/>
    <path id="Pfad_64" data-name="Pfad 64" d="M36,95.4c5.792,2.168,14.168.176,18.357,1.828m-2.019,21.636c1.859-6.937-2.416-11.658,2.162-21.577,1.229-5.3,3.964-9.782,8.945-13.915" transform="translate(0 -67.155)" fill="none" stroke="#fff" stroke-linecap="round" stroke-linejoin="round" stroke-miterlimit="22.926" stroke-width="1.5" fill-rule="evenodd"/>
    <path id="Pfad_65" data-name="Pfad 65" d="M197.15,70.359c0-4.875,3.5-11.266,7.419-15.187" transform="translate(-147.487 -41.342)" fill="none" stroke="#fff" stroke-linecap="round" stroke-linejoin="round" stroke-miterlimit="22.926" stroke-width="1.5" fill-rule="evenodd"/>
    <path id="Pfad_66" data-name="Pfad 66" d="M244.275,282.548c3.031,2.416,9.39,3.2,16.681,2.713" transform="translate(-190.617 -249.44)" fill="none" stroke="#fff" stroke-linecap="round" stroke-linejoin="round" stroke-miterlimit="22.926" stroke-width="1.5" fill-rule="evenodd"/>
    <path id="Pfad_67" data-name="Pfad 67" d="M262.275,227.048c3.349,1.844,9.771,2.6,17.063,2.109" transform="translate(-207.09 -198.646)" fill="none" stroke="#fff" stroke-linecap="round" stroke-linejoin="round" stroke-miterlimit="22.926" stroke-width="1.5" fill-rule="evenodd"/>
    <path id="Pfad_68" data-name="Pfad 68" d="M287.256,169.4c3.349,1.844,9.9,2.3,15.833,1.685" transform="translate(-229.954 -145.886)" fill="none" stroke="#fff" stroke-linecap="round" stroke-linejoin="round" stroke-miterlimit="22.926" stroke-width="1.5" fill-rule="evenodd"/>
    <path id="Pfad_69" data-name="Pfad 69" d="M359.947,118.352a28.037,28.037,0,0,1,5.851-6.475" transform="translate(-296.481 -93.239)" fill="none" stroke="#fff" stroke-linecap="round" stroke-linejoin="round" stroke-miterlimit="22.926" stroke-width="1.5" fill-rule="evenodd"/>
  </g>
</svg>
