<svg id="telephone_1_" data-name="telephone (1)" xmlns="http://www.w3.org/2000/svg" width="34.318" height="34.318" viewBox="0 0 34.318 34.318">
  <path id="Pfad_33" data-name="Pfad 33" d="M22.746,40.131a1.847,1.847,0,0,0-1.639.364l-2.138,1.747a1.849,1.849,0,0,1-2.156.143,19.355,19.355,0,0,1-6.023-6.023,1.849,1.849,0,0,1,.143-2.156l1.747-2.138a1.847,1.847,0,0,0,.364-1.639,9.027,9.027,0,0,0-4.765-6.05,1.851,1.851,0,0,0-1.715.053,28.736,28.736,0,0,0-3.3,2.092,1.862,1.862,0,0,0-.738,1.824A27.786,27.786,0,0,0,10.42,42.755a27.785,27.785,0,0,0,14.408,7.891,1.862,1.862,0,0,0,1.824-.738,28.738,28.738,0,0,0,2.092-3.3A1.851,1.851,0,0,0,28.8,44.9,9.027,9.027,0,0,0,22.746,40.131Z" transform="translate(-2.5 -16.356)" fill="#1b396f"/>
  <path id="Pfad_34" data-name="Pfad 34" d="M59.91,7.456a16.986,16.986,0,0,0-12.7-4.941.837.837,0,0,0-.8.871.853.853,0,0,0,.871.8,15.249,15.249,0,0,1,15.9,15.9.837.837,0,0,0,.8.871h.036a.837.837,0,0,0,.836-.8A17,17,0,0,0,59.91,7.456Z" transform="translate(-30.547 -2.5)" fill="#1b396f"/>
  <path id="Pfad_35" data-name="Pfad 35" d="M47.2,14.833a.837.837,0,1,0,.1,1.671,10.8,10.8,0,0,1,11.43,11.43.837.837,0,0,0,.786.885h.05a.837.837,0,0,0,.835-.788,12.475,12.475,0,0,0-13.2-13.2Z" transform="translate(-30.547 -10.363)" fill="#1b396f"/>
  <path id="Pfad_36" data-name="Pfad 36" d="M55.034,36.663c.027,0,.053,0,.079,0a.837.837,0,0,0,.832-.759,8.06,8.06,0,0,0-8.777-8.777.837.837,0,0,0,.155,1.667,6.386,6.386,0,0,1,6.955,6.955A.837.837,0,0,0,55.034,36.663Z" transform="translate(-30.547 -18.21)" fill="#1b396f"/>
</svg>
