<svg xmlns="http://www.w3.org/2000/svg" width="203.393" height="44.041" viewBox="0 0 203.393 44.041">
  <g id="Rehability_logo__MaIn" transform="translate(-11.464 -16.5)">
    <g id="Gruppe_65" data-name="Gruppe 65" transform="translate(44.269 26.766)">
      <path id="Pfad_74" data-name="Pfad 74" d="M123.872,73.734a10.272,10.272,0,0,1,3.675-.634v5.925c-.6-.063-1.109-.1-1.489-.1a4.579,4.579,0,0,0-3.3,1.141,4.647,4.647,0,0,0-1.2,3.485v8.618H115V73.417h6.274v2.25A5.98,5.98,0,0,1,123.872,73.734Z" transform="translate(-115 -65.432)" fill="#003070"/>
      <path id="Pfad_75" data-name="Pfad 75" d="M169.729,87.141a6.851,6.851,0,0,0,2-1.236l3.422,3.612c-1.774,2.028-4.436,3.042-7.953,3.042a12.771,12.771,0,0,1-5.767-1.236,9.525,9.525,0,0,1-3.865-3.454,9.82,9.82,0,0,1,0-9.981,9.515,9.515,0,0,1,3.707-3.454,11.971,11.971,0,0,1,10.329-.127,8.635,8.635,0,0,1,3.612,3.3,9.613,9.613,0,0,1,1.362,5.133L163.2,85.3c.729,1.489,2.123,2.25,4.246,2.25A7.306,7.306,0,0,0,169.729,87.141ZM163.8,78.9a4.465,4.465,0,0,0-1.2,3.042l7.6-1.489a3.316,3.316,0,0,0-1.3-1.869,3.778,3.778,0,0,0-2.313-.7A3.587,3.587,0,0,0,163.8,78.9Z" transform="translate(-143.146 -65.501)" fill="#003070"/>
      <path id="Pfad_76" data-name="Pfad 76" d="M245.107,60.982c1.426,1.394,2.123,3.485,2.123,6.274V77.964h-6.559V68.3c0-2.566-1.014-3.834-3.073-3.834a3.58,3.58,0,0,0-2.725,1.109,4.8,4.8,0,0,0-1.014,3.327v9.062H227.3V52.3h6.559v8.65a7.318,7.318,0,0,1,2.535-1.521,9.121,9.121,0,0,1,3.105-.507A7.532,7.532,0,0,1,245.107,60.982Z" transform="translate(-191.718 -51.223)" fill="#003070"/>
      <path id="Pfad_77" data-name="Pfad 77" d="M318.407,73.417V92.174h-6.242V90.3a6.849,6.849,0,0,1-5.545,2.186,9.273,9.273,0,0,1-4.658-1.2,8.651,8.651,0,0,1-3.327-3.422,10.343,10.343,0,0,1-1.236-5.133,10.22,10.22,0,0,1,1.236-5.1,8.482,8.482,0,0,1,3.327-3.359A9.25,9.25,0,0,1,306.62,73.1a6.958,6.958,0,0,1,5.228,1.933V73.417Zm-7.573,12.642a4.708,4.708,0,0,0,1.109-3.3,4.625,4.625,0,0,0-1.109-3.263,3.682,3.682,0,0,0-2.852-1.172,3.776,3.776,0,0,0-2.852,1.172,4.625,4.625,0,0,0-1.109,3.263,4.708,4.708,0,0,0,1.109,3.3,3.707,3.707,0,0,0,2.852,1.2A3.819,3.819,0,0,0,310.834,86.059Z" transform="translate(-239.608 -65.432)" fill="#003070"/>
      <path id="Pfad_78" data-name="Pfad 78" d="M390.676,60.063A8.691,8.691,0,0,1,394,63.421a10.22,10.22,0,0,1,1.236,5.1A10.427,10.427,0,0,1,394,73.655a8.862,8.862,0,0,1-3.327,3.422,9.273,9.273,0,0,1-4.658,1.2,6.849,6.849,0,0,1-5.545-2.186v1.869H374.2V52.3h6.559v8.555a6.958,6.958,0,0,1,5.228-1.933A8.955,8.955,0,0,1,390.676,60.063Zm-3.2,11.787a4.708,4.708,0,0,0,1.109-3.3,4.625,4.625,0,0,0-1.109-3.263,3.682,3.682,0,0,0-2.852-1.172,3.776,3.776,0,0,0-2.852,1.172,4.625,4.625,0,0,0-1.109,3.263,4.708,4.708,0,0,0,1.109,3.3,3.707,3.707,0,0,0,2.852,1.2A3.819,3.819,0,0,0,387.476,71.849Z" transform="translate(-292.074 -51.223)" fill="#003070"/>
      <path id="Pfad_79" data-name="Pfad 79" d="M447.5,74.1h6.559V92.857H447.5Z" transform="translate(-342.149 -66.116)" fill="#003070"/>
      <path id="Pfad_80" data-name="Pfad 80" d="M447.5,48.9h6.559v5.481H447.5Z" transform="translate(-342.149 -48.9)" fill="#003070"/>
      <g id="Gruppe_63" data-name="Gruppe 63" transform="translate(115.299 1.077)">
        <rect id="Rechteck_16" data-name="Rechteck 16" width="6.559" height="25.664" transform="translate(0)" fill="#003070"/>
      </g>
      <g id="Gruppe_64" data-name="Gruppe 64" transform="translate(125.28 0)">
        <path id="Pfad_81" data-name="Pfad 81" d="M510.4,48.9h6.559v5.481H510.4Z" transform="translate(-510.4 -48.9)" fill="#003070"/>
        <path id="Pfad_82" data-name="Pfad 82" d="M510.4,74.1h6.559V92.857H510.4Z" transform="translate(-510.4 -66.116)" fill="#003070"/>
      </g>
      <path id="Pfad_83" data-name="Pfad 83" d="M550.955,80.793a6.609,6.609,0,0,1-2.028.792,10.9,10.9,0,0,1-2.535.285,7.957,7.957,0,0,1-5.608-1.806,6.939,6.939,0,0,1-1.964-5.355V68.436H536V66.63l8.048-9.03h1.331v5.925h4.246v4.911h-4.246v6.21a2.167,2.167,0,0,0,.507,1.584,1.818,1.818,0,0,0,1.426.539,3.308,3.308,0,0,0,2-.6Z" transform="translate(-402.609 -54.843)" fill="#003070"/>
      <path id="Pfad_84" data-name="Pfad 84" d="M599.269,74.1l-4.626,11.438L590.049,74.1H583.3l8.143,19.3v.032h0a2.483,2.483,0,0,1-2.281,1.553h-3.485v4.911h5.513a5.052,5.052,0,0,0,4.658-3.073l9.664-22.686h-6.242Z" transform="translate(-434.922 -66.116)" fill="#003070"/>
    </g>
    <g id="Gruppe_68" data-name="Gruppe 68" transform="translate(11.464 16.5)">
      <path id="Pfad_85" data-name="Pfad 85" d="M28.458,76.686h0a3.144,3.144,0,0,0-.253,4.151A8.305,8.305,0,0,1,16.545,92.5a3.112,3.112,0,0,0-4.151.285h0a3.123,3.123,0,0,0,.317,4.721,14.43,14.43,0,0,0,10.139,3.01A14.636,14.636,0,0,0,33.243,76.971,3.128,3.128,0,0,0,28.458,76.686Z" transform="translate(-11.464 -56.947)" fill="#98c000"/>
      <g id="Gruppe_66" data-name="Gruppe 66" transform="translate(0.518 10.004)">
        <path id="Pfad_86" data-name="Pfad 86" d="M24.855,69.058a3.155,3.155,0,0,1-4.467,0l-4.816-4.816a8.491,8.491,0,0,1,0-11.977L18.835,49A3.155,3.155,0,0,1,23.3,49h0a3.155,3.155,0,0,1,0,4.467l-3.263,3.263a2.123,2.123,0,0,0,0,3.042l4.816,4.816a3.155,3.155,0,0,1,0,4.468Z" transform="translate(-13.1 -48.075)" fill="#003070"/>
      </g>
      <g id="Gruppe_67" data-name="Gruppe 67" transform="translate(10.182)">
        <circle id="Ellipse_2" data-name="Ellipse 2" cx="5.006" cy="5.006" r="5.006" fill="#98c000"/>
      </g>
    </g>
  </g>
</svg>
