<svg xmlns="http://www.w3.org/2000/svg" width="39.893" height="39.951" viewBox="0 0 39.893 39.951">
  <g id="industrial_robot_drill" data-name="industrial robot drill" transform="translate(-0.069)">
    <path id="Pfad_89" data-name="Pfad 89" d="M35.8,0a4.162,4.162,0,0,0-4.162,4.162v.832H29.974V3.329a.832.832,0,0,0-.832-.832H25.813a.832.832,0,0,0-.832.832H4.173A4.162,4.162,0,0,0,1.734,10.82C11.048,26.093,10,24.137,10,24.969v1.665H7.5a.832.832,0,0,0-.832.832v7.491a2.5,2.5,0,0,0,0,4.994H23.316a2.5,2.5,0,1,0,0-4.994V27.466a.832.832,0,0,0-.832-.832h-2.5c0-4.162.691-2.256-8.223-14.981H24.981a.832.832,0,0,0,.832.832h3.329a.832.832,0,0,0,.832-.832V9.988h1.665v2.5a.832.832,0,0,0,.832.832v2.5a.832.832,0,0,0,.832.832h1.665v7.491a.832.832,0,1,0,1.665,0V16.646H38.3a.832.832,0,0,0,.832-.832v-2.5a.832.832,0,0,0,.832-.832V4.162A4.162,4.162,0,0,0,35.8,0ZM33.3,4.162a2.5,2.5,0,1,1,4.994,0v7.491H33.3ZM4.173,4.994a2.5,2.5,0,1,1-2.5,2.5,2.5,2.5,0,0,1,2.5-2.5ZM23.316,38.286H6.67a.832.832,0,0,1,0-1.665H23.316a.832.832,0,1,1,0,1.665Zm-1.665-3.329H8.335V28.3H21.651Zm-9.988-8.323V24.969a3.329,3.329,0,1,1,6.658,0v1.665Zm3.92-6.617a4.994,4.994,0,0,0-4.852,2.364L4.173,11.652h5.56Zm12.726-9.2H26.645a.832.832,0,0,0-.832-.832H7.5a4.07,4.07,0,0,0,0-4.994H24.981v2.5a.832.832,0,1,0,1.665,0V4.162H28.31Zm1.665-2.5V6.658h1.665V8.323Zm7.491,6.658H34.136V13.317h3.329Z" fill="#fff"/>
    <path id="Pfad_90" data-name="Pfad 90" d="M17.832,28a.832.832,0,1,0,.832.832A.832.832,0,0,0,17.832,28Z" transform="translate(-2.839 -4.696)" fill="#fff"/>
    <path id="Pfad_91" data-name="Pfad 91" d="M4.832,9.665A.832.832,0,1,0,4,8.832.832.832,0,0,0,4.832,9.665Z" transform="translate(-0.659 -1.342)" fill="#fff"/>
    <path id="Pfad_92" data-name="Pfad 92" d="M19.162,37H15.832a.832.832,0,0,0,0,1.665h3.329a.832.832,0,1,0,0-1.665Z" transform="translate(-2.504 -6.205)" fill="#fff"/>
  </g>
</svg>
