<svg xmlns="http://www.w3.org/2000/svg" width="33.946" height="49.548" viewBox="0 0 33.946 49.548">
  <path id="rugby" d="M1021.4,562.5a4.868,4.868,0,0,0,5.508-4.138h0a4.871,4.871,0,1,0-5.508,4.138Zm-2.981-5.343a3.7,3.7,0,0,1,7.331,1.041h0a3.7,3.7,0,0,1-7.331-1.041Zm1.337,31.612a2.338,2.338,0,1,0,2.338,2.338A2.341,2.341,0,0,0,1019.76,588.763Zm0,3.507a1.169,1.169,0,1,1,1.169-1.169A1.17,1.17,0,0,1,1019.76,592.271Zm22.7,5.6a.585.585,0,0,0-.585-.585h-2.563a2.682,2.682,0,0,0,.471-1.521,2.767,2.767,0,0,0-.074-.626l-3.028-12.732a3.307,3.307,0,0,0-.993-1.685,4.062,4.062,0,0,0,1.46-6.5l.041,0c.043,0,.085,0,.128,0a2.242,2.242,0,0,0,.336-4.458l-6.854-1.042-6.753-4.288a.586.586,0,0,0-.094-.047,5.084,5.084,0,0,0-2.032-.761,5.143,5.143,0,0,0-5.167,2.525v0l-3.229,5.786-.324-2.263a.585.585,0,0,0-1.157.166l.542,3.782-.019.035a2.907,2.907,0,0,0-.35,1.769l.792,6.674a11.241,11.241,0,1,0,15.249,16.345h5.764a2.528,2.528,0,1,0,4.256,0h3.6A.585.585,0,0,0,1042.459,597.876Zm-3.889-2.464a1.579,1.579,0,0,1,.043.358,1.53,1.53,0,0,1-1.427,1.521h-.24a1.543,1.543,0,0,1-1.345-1.107l-2.634-9.319a1.754,1.754,0,0,0-1.686-1.282h-1.729a11.247,11.247,0,0,0-12.08-5.5l-.069-1.543h7.774a2.533,2.533,0,0,0,2.531,2.49h5.748a2.136,2.136,0,0,1,2.085,1.647Zm-12.225-17.457-.007-5.722,2.842,1.491a.584.584,0,0,0,.238.066l2.037.116a4.057,4.057,0,0,0-.17,5.96h-3.576a1.364,1.364,0,0,1-1.364-1.36v-.539s0,0,0-.006S1026.345,577.957,1026.345,577.955Zm10.694-.991a2.9,2.9,0,1,1-2.9-2.9c.048,0,.094,0,.141.007l.166.01a2.907,2.907,0,0,1,2.6,2.886Zm-6.538-7.088,6.978,1.06a1.045,1.045,0,0,1,.609.32,1.072,1.072,0,0,1-.833,1.811l-7.644-.437-3.275-1.718,0-2.2a5.061,5.061,0,0,0-.267-1.6l4.209,2.673A.583.583,0,0,0,1030.5,569.876Zm-9.312-5.118a3.979,3.979,0,0,1,3.975,3.96l.01,8.659h-7.823l-.062-1.386a.977.977,0,0,1,.179-.608l2.607-3.663a.585.585,0,0,0-.953-.678l-2.607,3.663a2.152,2.152,0,0,0-.395,1.339l.293,6.508a1.089,1.089,0,0,1-.884,1.114,1.084,1.084,0,0,1-1.275-.938l-.881-7.424a1.742,1.742,0,0,1,.21-1.061l4.023-7.21c0-.007.01-.013.013-.02l.038-.071a3.985,3.985,0,0,1,3.531-2.184Zm-1.43,36.422a10.073,10.073,0,0,1-6.521-17.755,2.251,2.251,0,0,0,4.344-.925l-.055-1.222a10.076,10.076,0,1,1,2.232,19.9Zm11.247-10.078a11.183,11.183,0,0,0-.875-4.349h1.152a.582.582,0,0,1,.56.428l2.635,9.324a2.693,2.693,0,0,0,.372.787h-5.707A11.179,11.179,0,0,0,1031.007,591.1Zm5.14,10.076a1.359,1.359,0,1,1,1.359-1.359A1.36,1.36,0,0,1,1036.147,601.178Z" transform="translate(-1008.513 -552.801)" fill="#fff"/>
</svg>
